# xmcd
#
# Track frame offsets:
#	150
#	23350
#	42665
#	73965
#	94717
#	107115
#	139140
#	157277
#	181652
#	208045
#	228855
#	245962
#	264170
#	280057
#	308295
#	332527
#
# Disc length: 4653 seconds
#
# Revision: 1
# Processed by: cddbd v1.4PL0 Copyright (c) Steve Scherf et al.
# Submitted via: audiograbber 1.80
#
DISCID=dc122b10
DTITLE=Biebl - Hansi Biebl Band - Der lange Weg
DYEAR=1900
DGENRE=
TTITLE0=Es gibt Momente
TTITLE1=Cuba libre
TTITLE2=Stell dir vor
TTITLE3=Bolero
TTITLE4=Für Glenn Miller
TTITLE5=Mir macht's einfach Spaß 
TTITLE6=Komm her
TTITLE7=Morgen Blues
TTITLE8=Der lange Weg
TTITLE9=Dein Freund sein
TTITLE10=Hab' doch den Mut
TTITLE11=En los memonos
TTITLE12=So lange her
TTITLE13=Sieben Tage
TTITLE14=Für Chuck Berry
TTITLE15=C-Thema
EXTD=
EXTT0=
EXTT1=
EXTT2=
EXTT3=
EXTT4=
EXTT5=
EXTT6=
EXTT7=
EXTT8=
EXTT9=
EXTT10=
EXTT11=
EXTT12=
EXTT13=
EXTT14=
EXTT15=
PLAYORDER=
